<svg width="24" height="24" viewBox="0 0 24 24" fill="none" xmlns="http://www.w3.org/2000/svg">
<path d="M12 23.0267C11.7349 23.0264 11.4807 22.9209 11.2933 22.7333L1.96 13.4C1.70992 13.1428 1.61606 12.7717 1.71378 12.4265C1.81151 12.0813 2.08597 11.8144 2.43378 11.7265C2.7816 11.6385 3.14992 11.7428 3.4 12L12 20.6L20.6 12C20.8493 11.7325 21.2247 11.6223 21.5791 11.7128C21.9334 11.8033 22.21 12.08 22.3005 12.4343C22.391 12.7886 22.2809 13.164 22.0133 13.4133L12.68 22.7467C12.4971 22.923 12.254 23.0231 12 23.0267Z" fill="white"/>
<path d="M12 23.0133C11.4507 23.0062 11.0072 22.5626 11 22.0133V2.01333C11 1.65607 11.1906 1.32594 11.5 1.14731C11.8094 0.968675 12.1906 0.968675 12.5 1.14731C12.8094 1.32594 13 1.65607 13 2.01333V22.0133C12.9928 22.5626 12.5493 23.0062 12 23.0133Z" fill="white"/>
<path d="M12 24C11.4697 23.9995 10.9614 23.7885 10.5867 23.4133L1.25334 14.08C0.472773 13.2958 0.475758 12.0272 1.26 11.2467C2.04425 10.4661 3.31277 10.4691 4.09334 11.2533L12 19.1867L19.8933 11.28C20.6739 10.4958 21.9424 10.4928 22.7267 11.2733C23.5109 12.0539 23.5139 13.3224 22.7333 14.1067L13.4 23.44C13.0243 23.8022 12.5219 24.0031 12 24Z" fill="white"/>
<path d="M12 24C10.8954 24 10 23.1046 10 22V2C10 0.895431 10.8954 0 12 0C13.1046 0 14 0.895431 14 2V22C14 23.1046 13.1046 24 12 24Z" fill="white"/>
</svg>
